<svg xmlns="http://www.w3.org/2000/svg" viewBox="0 0 16.79 19.24">
    <defs>
        <style>
            .symbol {
                fill: #459551;
                stroke: #459551;
                stroke-miterlimit: 10;
                stroke-width: 1.5px;
            }
        </style>
    </defs>
    <g class="symbol">
        <line y1="7.79" x2="16.79" y2="7.79" />
        <line y1="11.65" x2="16.79" y2="11.65" />
        <path d="M10.33,7a2.43,2.43,0,0,0,1-1.94A2.43,2.43,0,0,0,10.28,2.9a4.65,4.65,0,0,0-2.63-.71,7.45,7.45,0,0,0-2.56.46,5.36,5.36,0,0,0-2,1.22L1.88,2A7.88,7.88,0,0,1,7.54,0,7.16,7.16,0,0,1,12,1.35a4.43,4.43,0,0,1,1.79,3.76,4.23,4.23,0,0,1-.72,2.47" />
        <path d="M5.77,11.65a8.7,8.7,0,0,0-.77.53A2.35,2.35,0,0,0,4,14.1a2.55,2.55,0,0,0,1,2.17,4.28,4.28,0,0,0,2.65.78,7.41,7.41,0,0,0,5.55-2.22l1.31,1.75a9,9,0,0,1-6.83,2.66,6.68,6.68,0,0,1-4.45-1.46,4.62,4.62,0,0,1-1.76-3.72,4.16,4.16,0,0,1,1-2.83" />
        <path d="M13.06,7.58a3.44,3.44,0,0,1-.28.36" />
    </g>
</svg>