<svg xmlns="http://www.w3.org/2000/svg" viewBox="0 0 35.08 39.27">
    <defs>
        <style>
            .cls-1,
            .cls-4{
                fill:none;
            }
            .cls-1,
            .cls-2,
            .cls-4{
                stroke:#ef815a;
                stroke-linecap:round;
                stroke-linejoin:round;
            }
            .cls-1,
            .cls-2{
                
            }
            .cls-2{
                fill:#ffd4cc;
            }
            .cls-3{
                fill:#fff;
            }
            .cls-4{
                stroke-width:0.96px;
            }
        </style>
    </defs>
    <g>
        <path class="cls-1" d="M34.52,13.88V35A3.66,3.66,0,0,1,31,38.75H4.08A3.66,3.66,0,0,1,.52,35V13.88"/>
        <path class="cls-2" d="M4,4.77H31.13A3.43,3.43,0,0,1,34.55,8.2v5.15a0,0,0,0,1,0,0H.55a0,0,0,0,1,0,0V8.2A3.43,3.43,0,0,1,4,4.77Z"/>
        <circle class="cls-3" cx="7.08" cy="8.09" r="1.85"/>
        <circle class="cls-3" cx="28.07" cy="8.09" r="1.85"/>
        <line class="cls-4" x1="7.08" y1="0.48" x2="7.08" y2="8.09"/>
        <line class="cls-4" x1="28.07" y1="0.48" x2="28.07" y2="8.09"/>
    </g>
</svg>