<svg xmlns="http://www.w3.org/2000/svg" viewBox="0 0 69.48 69.39">
    <defs>
        <style>
            .cls-1 {
                fill: #e8e8e8;
            }
            .cls-2 {
                fill: #b6e3a6;
            }
            .cls-3 {
                fill: #e8e8e8;
            }
        </style>
    </defs>
    <title>Ресурс 5</title>
    <g id="Слой_2" data-name="Слой 2">
        <g id="Слой_1-2" data-name="Слой 1">
            <path class="cls-1" d="M59.14,51.62a29.7,29.7,0,0,1-48.8,0L6,54.13a34.71,34.71,0,0,0,57.5,0Z" />
            <path class="cls-2" d="M37.24,5A29.78,29.78,0,0,1,64.48,34.64a29.46,29.46,0,0,1-2.83,12.65L66,49.8A34.74,34.74,0,0,0,37.24,0Z" />
            <path class="cls-3" d="M7.83,47.29A29.73,29.73,0,0,1,32.24,5V0A34.72,34.72,0,0,0,3.49,49.8Z" />
        </g>
    </g>
</svg>