<svg xmlns="http://www.w3.org/2000/svg" viewBox="0 0 62.95 56.58"><defs><style>.cls-1,.cls-2{fill:#ea8862;}.cls-1{stroke:#ea8862;stroke-miterlimit:10;}</style></defs><title>Ресурс 3</title><g id="Слой_2" data-name="Слой 2"><g id="Слой_1-2" data-name="Слой 1"><g id="Слой_1-2-2" data-name="Слой 1-2"><path class="cls-1" d="M61.45,56.08H1.5a1,1,0,0,1-.86-.49,1,1,0,0,1,0-1L30.6,1a1,1,0,0,1,1.74,0l30,53.62a1,1,0,0,1,0,1A1,1,0,0,1,61.45,56.08Zm-58.25-2H59.75L31.47,3.51Z"/><path class="cls-2" d="M33.76,19H29.84l1,18.85h2Z"/><path class="cls-2" d="M33.16,38.27H30.48l-1-19.69h4.64Zm-2-.83h1.38l.88-18H30.21Z"/><circle class="cls-2" cx="31.8" cy="46.78" r="1.81"/><path class="cls-2" d="M31.8,48.9a2.13,2.13,0,1,1,2.12-2.12A2.13,2.13,0,0,1,31.8,48.9Zm0-3.61a1.49,1.49,0,1,0,1.49,1.49A1.49,1.49,0,0,0,31.8,45.29Z"/></g></g></g></svg>