<svg xmlns="http://www.w3.org/2000/svg" xmlns:xlink="http://www.w3.org/1999/xlink" viewBox="0 0 64.98 65.31"><defs><style>.cls-1,.cls-2{fill:#c1e8cb;}.cls-1,.cls-14{stroke:#4dad6b;stroke-miterlimit:10;stroke-width:0.45px;}.cls-3{clip-path:url(#clip-path);}.cls-4{fill:#5ba570;}.cls-5{fill:#4dad6b;}.cls-6{fill:#d89568;}.cls-7{fill:#e0a374;}.cls-8{fill:#5a3f2c;}.cls-9{fill:#f07652;}.cls-10{fill:#7f5d4c;}.cls-11{fill:#302a2a;}.cls-12{fill:#856451;}.cls-13{fill:#fff;stroke:#93c9a2;stroke-linecap:round;stroke-linejoin:round;stroke-width:0.9px;}.cls-14{fill:none;}</style><clipPath id="clip-path"><circle class="cls-1" cx="32.49" cy="32.49" r="32.26"/></clipPath></defs><title>Ресурс 1</title><g id="Слой_2" data-name="Слой 2"><g id="Слой_1-2" data-name="Слой 1"><circle class="cls-2" cx="32.49" cy="32.49" r="32.26"/><g class="cls-3"><rect class="cls-4" x="4.42" y="11.46" width="56.13" height="40.02" rx="11.03"/><path class="cls-5" d="M48.09,51.69s7.74,1.88,9.27,4,3.82,9,3.82,9L31,63.05s-.76-6.41,1.47-7.11S39,51.69,41.18,52Z"/><path class="cls-6" d="M48.09,52c-2.44,6.41-6.91.35-6.91.35V48.9l2.3-1,4.61,1.9V52Z"/><path class="cls-7" d="M50,37.54s2.19,12-1.88,12.25c0,0-6.54,1.1-7.74-2.51s-4.08-4-1.89-6.75S47.77,33.86,50,37.54Z"/><path class="cls-8" d="M41.18,48.9l-.83-3.82s-3.3-.78-2-3.71c1.93-.56.09.59,1.48.77l.21-2c-.14-3.27,8.37-2.3,10-2.64s1.11-4.82,1.11-4.82c-3.34.63-6.48.07-10.8.91s-2.65,4.88-2.58,9a8.07,8.07,0,0,0,3.48,6.27"/><path class="cls-9" d="M14.9,56s-4.25,1.08-4.61,4.61S9.1,64.24,9.1,64.24l28.28,1.07s1.62-10-7.65-10.52S14.9,56,14.9,56Z"/><path class="cls-10" d="M20.46,51.05v3.22l-5,1.44s3.94,5.83,13.63,3c3.73-1.34.36-4.32-1.79-4.4l.42-5.71-8,.67Z"/><path class="cls-11" d="M20.37,50.27s-7.27-1-6.55-7.26,2.72-9.81,6.07-10.17S29.34,31.46,31.76,36s.09,13.52-1.7,13.43S20.37,50.27,20.37,50.27Z"/><path class="cls-12" d="M19.89,46.39s0-5.44,4.16-5,6.37-1,6.45,2-.71,8.7-3.58,9S19.59,51.77,19.89,46.39Z"/><line class="cls-13" x1="14.76" y1="25.5" x2="39.98" y2="25.5"/><line class="cls-13" x1="14.57" y1="29.01" x2="33.17" y2="29.01"/><line class="cls-13" x1="14.57" y1="19.29" x2="33.17" y2="19.29"/></g><circle class="cls-14" cx="32.49" cy="32.49" r="32.26"/></g></g></svg>